<mxfile host="app.diagrams.net" modified="2023-10-20T06:48:26.397Z" agent="Mozilla/5.0 (Windows NT 10.0; Win64; x64) AppleWebKit/537.36 (KHTML, like Gecko) Chrome/117.0.0.0 Safari/537.36" version="21.6.2" etag="kQEGyH_wm4ED6G-4kSsm" type="github">
  <diagram name="第 1 页" id="9nzRkRs_KqRtRY-Yu-f3">
    <mxGraphModel>
      <root>
        <mxCell id="0" />
        <mxCell id="1" parent="0" />
      </root>
    </mxGraphModel>
  </diagram>
</mxfile>
